<svg xmlns="http://www.w3.org/2000/svg" viewBox="0 0 100 118.58"><path d="M45.83 8.33L45.83 8.33L62.50 8.33Q64.25 8.33 65.46 9.54Q66.67 10.75 66.67 12.50L66.67 12.50L66.67 50.00L82.58 50.00Q84.25 50.00 84.71 50.96Q85.17 51.92 84.08 53.25L84.08 53.25L56.83 86.58Q55.75 87.92 54.17 87.92Q52.58 87.92 51.50 86.58L51.50 86.58L24.25 53.25Q23.17 51.92 23.63 50.96Q24.08 50.00 25.75 50.00L25.75 50.00L41.67 50.00L41.67 12.50Q41.67 10.75 42.88 9.54Q44.08 8.33 45.83 8.33ZM93.75 75L93.75 75L97.92 75Q98.75 75 99.38 75.63Q100.00 76.25 100.00 77.08L100.00 77.08L100.00 106.25Q100.00 107.08 99.38 107.71Q98.75 108.33 97.92 108.33L97.92 108.33L10.42 108.33Q9.58 108.33 8.96 107.71Q8.33 107.08 8.33 106.25L8.33 106.25L8.33 77.08Q8.33 76.25 8.96 75.63Q9.58 75 10.42 75L10.42 75L14.58 75Q15.42 75 16.04 75.63Q16.67 76.25 16.67 77.08L16.67 77.08L16.67 91.67L91.67 91.67L91.67 77.08Q91.67 76.25 92.29 75.63Q92.92 75 93.75 75Z"></path></svg>
