<?xml version="1.0" encoding="utf-8"?>
<!-- Generator: Adobe Illustrator 26.3.1, SVG Export Plug-In . SVG Version: 6.00 Build 0)  -->
<svg version="1.1" id="Слой_1" xmlns="http://www.w3.org/2000/svg" xmlns:xlink="http://www.w3.org/1999/xlink" x="0px" y="0px"
	 viewBox="0 0 100 118.6" style="enable-background:new 0 0 100 118.6;" xml:space="preserve">
<path d="M41.8,8.3L41.8,8.3h16.7c1.2,0,2.2,0.4,3,1.2c0.8,0.8,1.2,1.8,1.2,3l0,0V50h15.9c1.1,0,1.8,0.3,2.1,1
	c0.3,0.6,0.1,1.4-0.6,2.3l0,0L52.8,86.6c-0.7,0.9-1.6,1.3-2.7,1.3c-1.1,0-1.9-0.4-2.7-1.3l0,0L20.2,53.2c-0.7-0.9-0.9-1.7-0.6-2.3
	c0.3-0.6,1-1,2.1-1l0,0h15.9V12.5c0-1.2,0.4-2.2,1.2-3C39.7,8.7,40.7,8.3,41.8,8.3z M89.8,75L89.8,75h4.2c0.6,0,1,0.2,1.5,0.6
	c0.4,0.4,0.6,0.9,0.6,1.5l0,0v29.2c0,0.6-0.2,1-0.6,1.5c-0.4,0.4-0.9,0.6-1.5,0.6l0,0H6.4c-0.6,0-1-0.2-1.5-0.6
	c-0.4-0.4-0.6-0.9-0.6-1.5l0,0V77.1c0-0.6,0.2-1,0.6-1.5C5.4,75.2,5.9,75,6.4,75l0,0h4.2c0.6,0,1,0.2,1.5,0.6
	c0.4,0.4,0.6,0.9,0.6,1.5l0,0v14.6h75V77.1c0-0.6,0.2-1,0.6-1.5C88.7,75.2,89.2,75,89.8,75z"/>
</svg>
