<?xml version="1.0" encoding="utf-8"?>
<!-- Generator: Adobe Illustrator 26.3.1, SVG Export Plug-In . SVG Version: 6.00 Build 0)  -->
<svg version="1.1" id="pdf" xmlns="http://www.w3.org/2000/svg" xmlns:xlink="http://www.w3.org/1999/xlink" x="0px" y="0px"
	 viewBox="0 0 513 512" style="enable-background:new 0 0 513 512;" xml:space="preserve">
<path d="M202.9,135.5h-67.7v135.3H67.6V135.5H-0.1L101.2,0.2L202.9,135.5z M210,424.7h26.6v-47.3h17.6c9.2,0,17.1-1.8,23.9-5.2
	c6.7-3.4,12-8.3,15.8-14.5s5.7-13.4,5.7-21.6c0-8.3-1.9-15.5-5.6-21.7s-9-11-15.8-14.4c-6.8-3.5-14.8-5.2-23.9-5.2H210V424.7
	L210,424.7z M236.7,354.2v-36.4h17.6c5.7,0,10.2,1.8,13.6,5.2s5.1,7.8,5.1,13s-1.7,9.6-5.1,13c-3.4,3.5-7.9,5.2-13.6,5.2
	L236.7,354.2L236.7,354.2z M316.3,424.9h42.2c9,0,16.9-1.8,23.6-5.3s12-8.4,15.7-14.7s5.6-13.6,5.6-21.9v-46.5
	c0-8.4-1.9-15.8-5.6-22c-3.8-6.2-9-11.1-15.7-14.5c-6.7-3.5-14.6-5.2-23.6-5.2h-42.2v129.9V424.9z M343,318.8h15.5
	c5.4,0,9.7,1.6,13.1,4.9c3.4,3.2,5.1,7.5,5.1,12.7v46.5c0,5.2-1.7,9.5-5.1,12.8s-7.8,5-13.1,5H343V318.8z M424.3,424.7H451v-51.3
	h52.4v-24.9h-52.7v-28.8H508v-24.9h-83.7L424.3,424.7L424.3,424.7z M370.3,97.9L286.4,14c-9-9-21.2-14.1-33.9-14.1H145.4V32h79v104
	c0,13.3,10.7,24,24,24h104v70.6h32v-98.7C384.4,119.2,379.3,106.9,370.3,97.9z M48.4,480h263.3v32H48.4c-26.5,0-48-21.5-48-48V284
	h32v180C32.4,472.8,39.6,480,48.4,480z M256.4,128V32.5c2.8,0.7,5.3,2.1,7.4,4.2l83.9,83.9c2.1,2.1,3.5,4.6,4.2,7.4H256.4z"/>
</svg>
