<svg xmlns="http://www.w3.org/2000/svg" viewBox="0 0 513 512"><path d="m88.8 424.7 34.9-67.1-32.6-62.8h29.4l13.5 28.5c1.3 2.6 2.4 5 3.3 7.1s1.5 3.7 1.7 4.6c0.2-0.9 0.8-2.5 1.6-4.6s1.8-4.5 3-7.1l13.9-28.5h28.7l-32.6 62.8 34.9 67.1h-29.4l-15.7-32c-1.2-2.6-2.3-5-3.2-7.3-1-2.3-1.7-4-2.1-5.2-0.4 1.2-1 2.9-1.8 5.2s-1.9 4.7-3.2 7.3l-15.7 32h-28.6zm123.7 0v-129.9h26.7v105.9h52.5v24h-79.2zm139.8 1.8c-9.1 0-17.1-1.5-23.9-4.6s-12-7.4-15.7-13-5.5-12.2-5.5-19.8h26.7c0 4.4 1.7 7.9 5.1 10.4 3.4 2.6 8 3.8 13.8 3.8 5.6 0 9.9-1.2 13.1-3.7 3.1-2.5 4.7-5.9 4.7-10.3 0-3.8-1.2-7.1-3.6-9.8s-5.7-4.6-10-5.5l-13.2-3c-11-2.6-19.6-7.4-25.7-14.5s-9.2-15.7-9.2-25.9c0-11.4 3.9-20.5 11.6-27.3s18.2-10.2 31.3-10.2c13.3 0 23.8 3.3 31.6 9.9s11.7 15.5 11.7 26.6h-26.7c0-4.2-1.5-7.4-4.4-9.8s-7.1-3.6-12.5-3.6c-5.1 0-9 1.2-11.7 3.6s-4.1 5.9-4.1 10.5c0 3.4 1.2 6.5 3.5 9.2s5.7 4.5 10.1 5.4l13 3c11.5 2.6 20.2 7.3 26.2 14.2 5.9 6.8 8.9 15.5 8.9 26.1 0 7.6-1.9 14.3-5.6 20.1s-9 10.3-15.7 13.5c-6.8 3.1-14.7 4.7-23.8 4.7zm56.9-1.8 34.9-67.1-32.6-62.8h29.4l13.5 28.5c1.3 2.6 2.4 5 3.3 7.1s1.5 3.7 1.7 4.6c0.2-0.9 0.8-2.5 1.6-4.6s1.8-4.5 3-7.1l13.9-28.5h28.7l-32.6 62.8 34.9 67.1h-29.4l-15.7-32c-1.2-2.6-2.3-5-3.2-7.3-1-2.3-1.7-4-2.1-5.2-0.4 1.2-1 2.9-1.8 5.2s-1.9 4.7-3.2 7.3l-15.7 32h-28.6zm-361.2 55.3c-8.8 0-16-7.2-16-16v-416c0-8.8 7.2-16 16-16h176v104c0 13.3 10.7 24 24 24h104v70.6h32v-98.7c0-12.7-5.1-25-14.1-34l-83.9-83.9c-9-9-21.2-14.1-33.9-14.1h-204.1c-26.5 0.1-48 21.6-48 48.1v416c0 26.5 21.5 48 48 48h263.3v-32h-263.3zm208-447.5c2.8 0.7 5.3 2.1 7.4 4.2l83.9 83.9c2.1 2.1 3.5 4.6 4.2 7.4h-95.5v-95.5z"/></svg>
