<?xml version="1.0" encoding="utf-8"?>
<!-- Generator: Adobe Illustrator 26.3.1, SVG Export Plug-In . SVG Version: 6.00 Build 0)  -->
<svg version="1.1" id="Слой_1" xmlns="http://www.w3.org/2000/svg" xmlns:xlink="http://www.w3.org/1999/xlink" x="0px" y="0px"
	 viewBox="0 0 513 512" style="enable-background:new 0 0 513 512;" xml:space="preserve">
<path d="M88.8,424.7l34.9-67.1l-32.6-62.8h29.4l13.5,28.5c1.3,2.6,2.4,5,3.3,7.1s1.5,3.7,1.7,4.6c0.2-0.9,0.8-2.5,1.6-4.6
	s1.8-4.5,3-7.1l13.9-28.5h28.7l-32.6,62.8l34.9,67.1h-29.4l-15.7-32c-1.2-2.6-2.3-5-3.2-7.3c-1-2.3-1.7-4-2.1-5.2
	c-0.4,1.2-1,2.9-1.8,5.2s-1.9,4.7-3.2,7.3l-15.7,32C117.4,424.7,88.8,424.7,88.8,424.7z M212.5,424.7V294.8h26.7v105.9h52.5v24
	H212.5L212.5,424.7z M352.3,426.5c-9.1,0-17.1-1.5-23.9-4.6s-12-7.4-15.7-13s-5.5-12.2-5.5-19.8h26.7c0,4.4,1.7,7.9,5.1,10.4
	c3.4,2.6,8,3.8,13.8,3.8c5.6,0,9.9-1.2,13.1-3.7c3.1-2.5,4.7-5.9,4.7-10.3c0-3.8-1.2-7.1-3.6-9.8s-5.7-4.6-10-5.5l-13.2-3
	c-11-2.6-19.6-7.4-25.7-14.5s-9.2-15.7-9.2-25.9c0-11.4,3.9-20.5,11.6-27.3s18.2-10.2,31.3-10.2c13.3,0,23.8,3.3,31.6,9.9
	s11.7,15.5,11.7,26.6h-26.7c0-4.2-1.5-7.4-4.4-9.8s-7.1-3.6-12.5-3.6c-5.1,0-9,1.2-11.7,3.6s-4.1,5.9-4.1,10.5
	c0,3.4,1.2,6.5,3.5,9.2s5.7,4.5,10.1,5.4l13,3c11.5,2.6,20.2,7.3,26.2,14.2c5.9,6.8,8.9,15.5,8.9,26.1c0,7.6-1.9,14.3-5.6,20.1
	s-9,10.3-15.7,13.5C369.3,424.9,361.4,426.5,352.3,426.5L352.3,426.5z M409.2,424.7l34.9-67.1l-32.6-62.8h29.4l13.5,28.5
	c1.3,2.6,2.4,5,3.3,7.1s1.5,3.7,1.7,4.6c0.2-0.9,0.8-2.5,1.6-4.6s1.8-4.5,3-7.1l13.9-28.5h28.7L474,357.6l34.9,67.1h-29.4l-15.7-32
	c-1.2-2.6-2.3-5-3.2-7.3c-1-2.3-1.7-4-2.1-5.2c-0.4,1.2-1,2.9-1.8,5.2s-1.9,4.7-3.2,7.3l-15.7,32H409.2L409.2,424.7z M100.7,0.2
	L-0.5,135.5h67.7v135.3h67.7V135.5h67.7L100.7,0.2z M384,131.9v98.7h-32V160H248c-13.3,0-24-10.7-24-24V32h-79V-0.1h107.1
	C264.8-0.1,277,5,286,14l83.9,83.9C378.9,106.9,384,119.2,384,131.9z M32,464V284H0v180c0,26.5,21.5,48,48,48h263.3v-32H48
	C39.2,480,32,472.8,32,464z M351.5,128c-0.7-2.8-2.1-5.3-4.2-7.4l-83.9-83.9c-2.1-2.1-4.6-3.5-7.4-4.2V128H351.5z"/>
</svg>
