<svg xmlns="http://www.w3.org/2000/svg" viewBox="0 0 513 512"><path d="m210 424.7v-129.9h44.3c9.1 0 17.1 1.7 23.9 5.2 6.8 3.4 12.1 8.2 15.8 14.4s5.6 13.4 5.6 21.7c0 8.2-1.9 15.4-5.7 21.6s-9.1 11.1-15.8 14.5c-6.8 3.4-14.7 5.2-23.9 5.2h-17.6v47.3h-26.6zm26.7-70.5h17.6c5.7 0 10.2-1.7 13.6-5.2 3.4-3.4 5.1-7.8 5.1-13s-1.7-9.6-5.1-13-7.9-5.2-13.6-5.2h-17.6v36.4zm79.6 70.5v-129.9h42.2c9 0 16.9 1.7 23.6 5.2 6.7 3.4 11.9 8.3 15.7 14.5 3.7 6.2 5.6 13.6 5.6 22v46.5c0 8.3-1.9 15.6-5.6 21.9s-9 11.2-15.7 14.7-14.6 5.3-23.6 5.3h-42.2v-0.2zm26.7-24h15.5c5.3 0 9.7-1.7 13.1-5s5.1-7.6 5.1-12.8v-46.5c0-5.2-1.7-9.5-5.1-12.7-3.4-3.3-7.7-4.9-13.1-4.9h-15.5v81.9zm81.3 24v-129.9h83.7v24.9h-57.3v28.8h52.7v24.9h-52.4v51.3h-26.7zm-376.3 55.3c-8.8 0-16-7.2-16-16v-416c0-8.8 7.2-16 16-16h176v104c0 13.3 10.7 24 24 24h104v70.6h32v-98.7c0-12.7-5.1-25-14.1-34l-83.9-83.9c-9-9-21.2-14.1-33.9-14.1h-204.1c-26.5 0.1-48 21.6-48 48.1v416c0 26.5 21.5 48 48 48h263.3v-32h-263.3zm208-447.5c2.8 0.7 5.3 2.1 7.4 4.2l83.9 83.9c2.1 2.1 3.5 4.6 4.2 7.4h-95.5v-95.5z"/></svg>
