<svg xmlns="http://www.w3.org/2000/svg" viewBox="0 0 100 118.58"><path d="M75.00 8.33L91.67 25.00L91.67 58.33L77.92 44.58Q76.75 43.33 75.00 43.33Q73.25 43.33 72.08 44.58L72.08 44.58L50.17 66.67L16.67 66.67L16.67 100L4.17 100Q2.42 100 1.21 98.79Q0 97.58 0 95.83L0 95.83L0 12.50Q0 10.83 1.21 9.58Q2.42 8.33 4.17 8.33L4.17 8.33L25.00 8.33L25.00 33.33L66.67 33.33L66.67 8.33L75.00 8.33ZM58.33 8.33L58.33 25.00L50.00 25.00L50.00 8.33L58.33 8.33ZM77.92 61.25L77.92 61.25L97.08 80.33Q98.25 81.58 97.92 82.46Q97.58 83.33 95.83 83.33L95.83 83.33L83.33 83.33L83.33 104.17Q83.33 105.83 82.13 107.08Q80.92 108.33 79.17 108.33L79.17 108.33L70.83 108.33Q69.08 108.33 67.88 107.08Q66.67 105.83 66.67 104.17L66.67 104.17L66.67 83.33L54.17 83.33Q52.42 83.33 52.08 82.46Q51.75 81.58 52.92 80.33L52.92 80.33L72.08 61.25Q73.25 60.00 75.00 60.00Q76.75 60.00 77.92 61.25Z"></path></svg>