<svg xmlns="http://www.w3.org/2000/svg" viewBox="0 0 60 60"><path d="m40.5 60.5h-21c-0.8 0-1.6-0.3-2.1-1s-0.7-1.5-0.5-2.3l1.3-5.3c0.2-0.7 0.6-1.4 1.2-1.8 0.5-0.4 1.1-0.6 1.8-0.6h17.5c0.7 0 1.3 0.2 1.9 0.7 0.6 0.4 1 1 1.2 1.7l1.4 5.4c0.1 0.8 0 1.5-0.5 2.1-0.6 0.8-1.4 1.1-2.2 1.1zm-19.3-4h17.6l-0.8-3h-16.1l-0.7 3zm16.7-3.7zm18.9 3h-7c-0.9 0-1.6-0.3-2.2-0.9s-0.9-1.4-0.9-2.2v-6.2h-33.4v6.2c0 0.8-0.3 1.6-0.9 2.2s-1.4 0.9-2.2 0.9h-7c-0.9 0-1.6-0.3-2.2-0.9-0.7-0.6-1-1.4-1-2.2v-30.4c0-0.9 0.3-1.6 0.9-2.2s1.4-0.9 2.2-0.9h7c0.6 0 1.3 0.2 1.9 0.6 0.8 0.5 1.3 1 1.6 1.6l3.6 7.1h25.5l3.6-7.1c0.3-0.6 0.8-1.2 1.5-1.6s1.4-0.6 2-0.6h7c0.8 0 1.6 0.3 2.2 0.9s0.9 1.4 0.9 2.2v30.3c0 0.8-0.3 1.6-0.9 2.2-0.5 0.7-1.3 1-2.2 1zm-6.1-4h5.3v-28.6h-6.1l-3.6 7.2c-0.3 0.6-0.8 1.1-1.5 1.5-0.6 0.4-1.3 0.6-2 0.6h-25.6c-0.7 0-1.4-0.2-2-0.6-0.7-0.4-1.2-1-1.5-1.6l-3.6-7.1h-6.1v28.7h5.3v-6.2c0-0.9 0.3-1.6 0.9-2.2s1.4-0.9 2.2-0.9h35c0.8 0 1.6 0.3 2.2 0.9s0.9 1.4 0.9 2.2v6.1zm-8-23.2zm7.1-5.4zm-39.8 0zm0.1-0.1zm29.8 2.9h-19.8c-0.6 0-1.3-0.2-1.9-0.5s-1.2-0.8-1.5-1.3l-0.1-0.2-2.5-4.7c-0.7-1.1-0.9-2.4-0.5-3.6l3.4-13.1c0.1-0.7 0.5-1.4 1-1.8 0.6-0.5 1.4-0.8 2.2-0.8h19.5c0.8 0 1.6 0.3 2.2 0.9 0.5 0.5 0.9 1.1 1 1.8l3.6 13.1c0.3 1.2 0.2 2.5-0.5 3.6l-2.8 4.8c-0.4 0.5-0.9 1-1.5 1.3-0.5 0.3-1.2 0.5-1.8 0.5zm-19.8-4.1v0l0.1 0.1h19.7 0.1 0.1l2.7-4.7c0.1-0.1 0.1-0.2 0.1-0.4l-3.7-12.9h-18.4l-3.3 12.8c-0.1 0.2-0.1 0.2 0 0.4l0.1 0.2 2.5 4.5z"/></svg>
