<svg xmlns="http://www.w3.org/2000/svg" viewBox="0 0 100 118.58"><path d="M68.50 8.33L68.50 8.33L31.50 8.33Q30.58 8.33 29.92 8.96Q29.25 9.58 29.17 10.42L29.17 10.42L22.67 35.50Q22.08 37.50 23.25 39.25L23.25 39.25L28.00 48.25Q28.50 49.00 29.46 49.50Q30.42 50.00 31.25 50.00L31.25 50.00L68.75 50.00Q69.58 50.00 70.54 49.50Q71.50 49.00 72.00 48.25L72.00 48.25L77.17 39.25Q78.33 37.50 77.75 35.50L77.75 35.50L70.83 10.42Q70.75 9.58 70.08 8.96Q69.42 8.33 68.50 8.33ZM97.92 41.67L97.92 41.67L85.42 41.67Q84.58 41.67 83.67 42.21Q82.75 42.75 82.42 43.50L82.42 43.50L75.92 56.50Q75.58 57.25 74.67 57.79Q73.75 58.33 72.92 58.33L72.92 58.33L27.08 58.33Q26.25 58.33 25.33 57.79Q24.42 57.25 24.08 56.50L24.08 56.50L17.58 43.50Q17.25 42.75 16.33 42.21Q15.42 41.67 14.58 41.67L14.58 41.67L2.08 41.67Q1.25 41.67 0.63 42.29Q0 42.92 0 43.75L0 43.75L0 97.92Q0 98.75 0.63 99.38Q1.25 100 2.08 100L2.08 100L14.58 100Q15.42 100 16.04 99.38Q16.67 98.75 16.67 97.92L16.67 97.92L16.67 85.42Q16.67 84.58 17.29 83.96Q17.92 83.33 18.75 83.33L18.75 83.33L81.25 83.33Q82.08 83.33 82.71 83.96Q83.33 84.58 83.33 85.42L83.33 85.42L83.33 97.92Q83.33 98.75 83.96 99.38Q84.58 100 85.42 100L85.42 100L97.92 100Q98.75 100 99.38 99.38Q100.00 98.75 100.00 97.92L100.00 97.92L100.00 43.75Q100.00 42.92 99.38 42.29Q98.75 41.67 97.92 41.67ZM70.83 91.67L70.83 91.67L29.17 91.67Q28.33 91.67 27.54 92.25Q26.75 92.83 26.58 93.67L26.58 93.67L23.42 106.33Q23.25 107.17 23.71 107.75Q24.17 108.33 25.00 108.33L25.00 108.33L75.00 108.33Q75.83 108.33 76.29 107.75Q76.75 107.17 76.58 106.33L76.58 106.33L73.42 93.67Q73.25 92.83 72.46 92.25Q71.67 91.67 70.83 91.67Z"></path></svg>