<svg xmlns="http://www.w3.org/2000/svg" viewBox="0 0 100 118.58"> <path d="M41.67-0.00L41.67-0.00L66.67-0.00Q70.08-0.00 72.54 2.46Q75.00 4.92 75.00 8.33L75.00 8.33L75.00 16.67L97.92 16.67Q98.75 16.67 99.38 17.29Q100.00 17.92 100.00 18.75L100.00 18.75L100.00 25.00L8.33 25.00L8.33 18.75Q8.33 17.92 8.96 17.29Q9.58 16.67 10.42 16.67L10.42 16.67L33.33 16.67L33.33 8.33Q33.33 4.92 35.79 2.46Q38.25-0.00 41.67-0.00ZM66.67 8.33L41.67 8.33L41.67 16.67L66.67 16.67L66.67 8.33ZM16.67 33.33L91.67 33.33L91.67 100Q91.67 103.42 89.21 105.88Q86.75 108.33 83.33 108.33L83.33 108.33L25.00 108.33Q21.58 108.33 19.13 105.88Q16.67 103.42 16.67 100L16.67 100L16.67 33.33ZM33.33 41.67L25.00 41.67L25.00 100L33.33 100L33.33 41.67ZM50.00 41.67L41.67 41.67L41.67 100L50.00 100L50.00 41.67ZM66.67 41.67L58.33 41.67L58.33 100L66.67 100L66.67 41.67ZM83.33 41.67L75.00 41.67L75.00 100L83.33 100L83.33 41.67Z"></path></svg>
